<?xml version="1.0" standalone="no"?>
<!DOCTYPE svg PUBLIC "-//W3C//DTD SVG 20010904//EN"
 "http://www.w3.org/TR/2001/REC-SVG-20010904/DTD/svg10.dtd">
<svg version="1.0" xmlns="http://www.w3.org/2000/svg"
 width="512.000000pt" height="512.000000pt" viewBox="0 0 512.000000 512.000000"
 preserveAspectRatio="xMidYMid meet">

<g transform="translate(0.000000,512.000000) scale(0.100000,-0.100000)"
fill="#000000" stroke="none">
<path d="M2490 5111 c-48 -15 -105 -50 -136 -83 -17 -18 -162 -201 -323 -406
-279 -358 -291 -375 -291 -417 0 -36 5 -48 31 -69 37 -31 86 -34 120 -7 13 10
156 188 318 394 202 259 303 379 323 388 69 28 39 63 791 -906 383 -495 725
-942 758 -993 299 -459 374 -1033 204 -1560 -45 -139 -157 -362 -243 -482 -75
-106 -240 -281 -341 -364 -583 -475 -1412 -537 -2056 -155 -153 91 -228 151
-370 293 -156 157 -241 274 -335 461 -260 519 -262 1100 -5 1620 81 164 112
211 329 489 148 191 176 233 176 261 0 41 -39 91 -77 98 -58 11 -84 -13 -260
-239 -200 -256 -264 -351 -337 -494 -221 -432 -278 -939 -161 -1410 185 -743
785 -1323 1535 -1484 833 -178 1684 187 2137 917 196 317 295 671 295 1057 1
246 -33 449 -113 676 -42 123 -146 332 -214 434 -93 137 -1453 1887 -1496
1923 -64 56 -181 81 -259 58z"/>
<path d="M1541 3976 c-90 -50 -50 -186 55 -186 35 0 94 59 94 94 0 80 -80 130
-149 92z"/>
<path d="M3783 2110 c-37 -15 -50 -50 -57 -149 -34 -473 -307 -856 -732 -1026
-101 -40 -134 -70 -134 -121 0 -46 24 -80 65 -94 43 -14 120 11 266 87 432
224 724 682 732 1151 l2 103 -33 30 c-33 30 -67 36 -109 19z"/>
<path d="M2511 836 c-59 -33 -67 -102 -17 -152 50 -50 121 -42 152 17 46 91
-47 184 -135 135z"/>
</g>
</svg>
