<?xml version="1.0" standalone="no"?>
<!DOCTYPE svg PUBLIC "-//W3C//DTD SVG 20010904//EN"
 "http://www.w3.org/TR/2001/REC-SVG-20010904/DTD/svg10.dtd">
<svg version="1.0" xmlns="http://www.w3.org/2000/svg"
 width="512.000000pt" height="512.000000pt" viewBox="0 0 512.000000 512.000000"
 preserveAspectRatio="xMidYMid meet">

<g transform="translate(0.000000,512.000000) scale(0.100000,-0.100000)"
fill="#000000" stroke="none">
<path d="M3384 4909 c-60 -17 -126 -71 -158 -129 l-31 -55 -3 -697 c-1 -384
-4 -698 -5 -698 -2 0 -26 11 -53 24 -125 61 -254 78 -383 52 -46 -9 -85 -16
-86 -14 -2 2 -19 30 -38 63 -72 123 -150 191 -233 203 l-46 7 -47 136 c-112
322 -246 470 -417 456 l-61 -4 -46 58 c-62 76 -167 161 -253 201 -64 31 -76
33 -174 33 -99 0 -110 -2 -172 -33 -85 -42 -167 -128 -199 -209 -18 -46 -22
-79 -23 -158 -1 -111 11 -169 59 -292 28 -71 31 -84 18 -95 -22 -18 -50 -78
-58 -125 -20 -122 92 -328 278 -512 l75 -73 -15 -37 c-23 -54 -12 -145 26
-227 17 -37 30 -68 29 -69 -2 -1 -25 -10 -53 -20 -69 -25 -147 -78 -196 -133
-42 -47 -109 -172 -109 -203 0 -8 -2 -18 -5 -21 -3 -3 -90 24 -193 60 -166 58
-196 65 -267 66 -67 1 -89 -3 -137 -26 -124 -58 -197 -163 -206 -293 -4 -66 7
-115 42 -197 6 -13 -1 -17 -36 -23 -118 -20 -208 -121 -208 -234 0 -34 227
-680 279 -795 99 -219 305 -434 529 -554 104 -55 268 -109 389 -127 145 -22
2001 -22 2146 0 392 59 743 317 912 670 18 39 90 230 160 425 117 328 127 359
122 408 -8 76 -46 135 -110 172 l-52 30 -177 0 c-98 0 -178 2 -178 6 0 3 32
59 70 124 200 338 284 650 237 877 l-13 62 305 3 306 3 55 31 c60 33 112 99
130 162 14 50 14 1484 0 1534 -18 65 -70 130 -130 163 l-55 30 -755 2 c-437 1
-768 -2 -786 -8z m1521 -155 c67 -32 65 -4 65 -799 0 -795 2 -767 -65 -799
-29 -14 -118 -16 -750 -16 -632 0 -721 2 -750 16 -67 32 -65 4 -65 799 0 631
2 721 16 750 31 67 2 65 797 65 634 0 723 -2 752 -16z m-3439 -379 c72 -36
154 -109 229 -202 73 -92 98 -105 151 -79 92 43 156 -3 244 -177 45 -89 81
-191 125 -349 21 -80 43 -89 148 -62 24 5 33 1 66 -34 21 -22 53 -66 71 -98
l33 -57 -29 -20 c-113 -79 -223 -240 -245 -362 -6 -33 -14 -67 -18 -76 -4 -12
-136 198 -416 659 -225 372 -418 684 -427 694 -28 28 -82 23 -107 -8 -12 -15
-21 -34 -21 -44 0 -9 213 -367 473 -796 261 -428 471 -780 468 -781 -3 -2
-154 30 -335 71 l-330 73 -23 34 c-37 53 -73 135 -73 165 0 19 11 38 35 60 58
53 53 66 -98 216 -145 144 -227 257 -252 343 -20 68 -12 98 36 137 55 44 57
72 16 155 -56 110 -81 205 -81 303 0 67 4 93 21 125 65 122 216 171 339 110z
m1503 -1120 c94 -22 195 -80 267 -152 114 -112 89 -107 533 -113 l384 -5 15
-40 c25 -63 21 -259 -6 -361 -45 -167 -145 -379 -268 -565 l-65 -99 -149 0
-149 0 -11 43 c-30 120 -87 217 -170 289 -95 83 -146 101 -532 189 -194 44
-360 82 -369 85 -19 5 -47 112 -55 216 -16 197 80 373 254 466 113 60 206 74
321 47z m-629 -859 c471 -108 795 -186 827 -201 91 -41 181 -150 199 -243 l7
-32 -996 0 -996 0 -20 -26 c-27 -35 -26 -57 3 -91 l24 -28 1481 -3 1480 -2 20
-26 c12 -15 21 -34 21 -43 0 -34 -251 -716 -292 -793 -136 -254 -379 -444
-676 -526 l-97 -27 -1055 0 -1055 0 -98 27 c-298 82 -537 269 -677 531 -41 75
-290 753 -290 787 0 10 9 29 21 44 l20 26 433 0 c446 0 486 3 506 40 6 11 10
114 10 237 0 282 14 337 105 428 74 75 157 107 260 101 33 -2 409 -83 835
-180z m-1547 -151 l197 -68 0 -129 0 -130 -247 4 c-241 3 -249 4 -290 27 -150
86 -130 300 32 359 50 19 102 8 308 -63z"/>
<path d="M4489 4416 c-56 -20 -80 -41 -274 -235 -99 -100 -184 -181 -190 -181
-6 0 -42 32 -80 71 -80 81 -116 100 -190 100 -119 0 -205 -88 -205 -208 1 -80
26 -117 206 -294 157 -154 173 -167 221 -178 57 -14 99 -8 153 19 53 28 596
577 615 622 69 167 -90 344 -256 284z m99 -152 c15 -10 22 -25 22 -47 0 -28
-31 -62 -278 -309 -209 -210 -283 -278 -301 -278 -37 0 -331 294 -331 330 0
37 22 63 54 63 21 0 51 -24 135 -107 93 -91 113 -106 141 -106 30 0 57 24 270
235 130 129 243 235 251 235 8 0 25 -7 37 -16z"/>
</g>
</svg>
