<?xml version="1.0" standalone="no"?>
<!DOCTYPE svg PUBLIC "-//W3C//DTD SVG 20010904//EN"
 "http://www.w3.org/TR/2001/REC-SVG-20010904/DTD/svg10.dtd">
<svg version="1.0" xmlns="http://www.w3.org/2000/svg"
 width="512.000000pt" height="512.000000pt" viewBox="0 0 512.000000 512.000000"
 preserveAspectRatio="xMidYMid meet">

<g transform="translate(0.000000,512.000000) scale(0.100000,-0.100000)"
fill="#000000" stroke="none">
<path d="M2511 5107 c-48 -28 -63 -85 -36 -136 20 -40 52 -49 199 -55 393 -19
794 -143 1121 -346 299 -186 589 -476 773 -773 162 -260 279 -583 328 -902 28
-182 25 -524 -5 -704 -56 -331 -169 -628 -344 -905 -68 -107 -73 -142 -28
-187 23 -23 38 -29 71 -29 51 0 68 16 143 137 575 930 503 2111 -180 2958
-463 575 -1152 923 -1881 951 -107 4 -142 2 -161 -9z"/>
<path d="M1167 4945 c-372 -61 -705 -292 -892 -620 -59 -104 -101 -214 -133
-350 -22 -96 -25 -131 -25 -270 1 -93 7 -187 15 -225 13 -64 13 -67 -19 -168
-36 -116 -76 -301 -95 -442 -16 -126 -16 -509 1 -630 80 -582 327 -1083 732
-1489 843 -843 2145 -993 3160 -365 118 73 139 95 139 146 0 30 -7 46 -29 69
-46 46 -79 40 -201 -36 -279 -174 -591 -290 -920 -341 -161 -25 -510 -25 -670
-1 -364 56 -674 175 -970 372 -233 155 -424 335 -584 550 -107 143 -156 222
-232 375 -253 510 -310 1090 -162 1653 l31 118 56 -8 c31 -4 119 -8 196 -7
144 0 245 15 359 53 68 22 67 35 2 -124 -76 -186 -113 -357 -123 -575 -34
-769 455 -1484 1188 -1734 537 -183 1123 -98 1589 232 122 86 326 290 412 412
248 350 365 794 318 1205 -95 830 -735 1470 -1565 1565 -302 34 -661 -25 -924
-154 -41 -20 -76 -34 -78 -32 -2 2 3 28 11 57 47 164 59 381 30 550 -19 112
-34 152 -66 172 -69 45 -384 69 -551 42z m390 -201 c29 -8 34 -29 40 -184 6
-155 -15 -284 -67 -419 -133 -343 -447 -597 -814 -656 -108 -18 -266 -20 -266
-4 0 29 128 212 229 328 85 97 223 214 356 303 66 43 125 89 132 101 31 56 1
127 -61 143 -41 10 -66 -1 -177 -74 -223 -147 -422 -341 -564 -551 l-50 -74
-3 39 c-2 22 2 81 8 132 52 413 321 745 712 876 129 44 219 56 368 51 74 -2
145 -7 157 -11z m1052 -639 c103 -53 217 -269 289 -550 35 -136 72 -332 64
-340 -3 -3 -184 -5 -402 -5 -218 0 -399 2 -402 5 -8 8 29 204 64 340 55 215
134 393 211 481 71 80 119 99 176 69z m-399 -30 c0 -3 -13 -29 -29 -58 -91
-161 -172 -436 -226 -769 l-6 -38 -399 0 c-298 0 -400 3 -400 12 0 23 96 182
171 282 194 257 472 452 784 547 97 30 105 32 105 24z m845 -37 c354 -116 674
-382 869 -723 25 -44 46 -86 46 -92 0 -10 -87 -13 -400 -13 l-399 0 -6 38
c-54 333 -135 608 -226 769 -16 29 -29 55 -29 58 0 7 40 -3 145 -37z m-1130
-1045 c-12 -28 -17 -647 -7 -768 5 -60 8 -111 7 -112 -1 -2 -194 -3 -431 -3
l-429 -1 -17 68 c-59 230 -62 491 -7 736 l22 97 435 0 c410 0 434 -1 427 -17z
m1072 -20 c10 -49 10 -777 0 -825 l-8 -38 -429 0 -429 0 -8 38 c-10 48 -10
776 0 825 l8 37 429 0 429 0 8 -37z m1081 -60 c56 -252 54 -505 -6 -736 l-17
-68 -429 1 c-237 0 -430 1 -431 3 -1 1 2 52 7 112 10 121 5 740 -7 768 -7 16
17 17 427 17 l435 0 21 -97z m-2123 -1040 c54 -335 135 -609 226 -772 17 -29
29 -55 27 -57 -3 -2 -35 5 -73 16 -398 114 -743 389 -944 754 -23 40 -41 79
-41 85 0 8 110 11 400 11 l399 0 6 -37z m1007 32 c3 -3 -3 -54 -14 -113 -60
-337 -163 -607 -276 -722 -90 -92 -134 -92 -224 0 -113 115 -216 385 -276 722
-11 59 -17 110 -14 113 7 7 797 7 804 0z m1008 -7 c0 -20 -85 -164 -147 -250
-203 -282 -502 -492 -838 -588 -38 -11 -70 -18 -73 -16 -2 2 10 28 27 57 91
163 172 437 226 772 l6 37 399 0 c313 0 400 -3 400 -12z"/>
<path d="M4251 906 c-90 -50 -50 -186 55 -186 35 0 94 59 94 94 0 80 -80 130
-149 92z"/>
</g>
</svg>
